<svg width="1440" height="156" viewBox="0 0 1440 156" fill="none" xmlns="http://www.w3.org/2000/svg">
<path d="M1441 0H0L205.728 6.51442e-05C347.4 6.51442e-05 485.903 41.9333 603.781 120.515C674.158 167.431 765.842 167.431 836.219 120.515C954.097 41.9333 1092.6 6.51442e-05 1234.27 6.51442e-05L1441 0Z" fill="#050506"/>
<path d="M653.27 77.42C646.004 77.42 641.804 74.27 641.804 74.27V71.12C641.804 71.12 646.004 74.732 653.27 74.732C660.284 74.732 663.434 71.582 663.434 68.6C663.434 65.618 660.284 62.468 653.27 62.468C649.364 62.468 646.634 63.56 646.634 63.56V60.494L659.654 50.624V50.414H642.014V47.6H665.24V49.532L651.758 59.738V59.948C651.758 59.948 652.472 59.78 653.396 59.78C662.174 59.78 666.5 64.106 666.5 68.6C666.5 73.094 662.174 77.42 653.27 77.42ZM684.99 77H672.81V47.6H684.99C697.464 47.6 703.554 53.69 703.554 62.3C703.554 70.91 697.464 77 684.99 77ZM675.75 50.414V74.186H684.99C695.49 74.186 700.488 69.188 700.488 62.3C700.488 55.412 695.49 50.414 684.99 50.414H675.75ZM719.735 47.6H747.203V50.414H734.939V77H731.999V50.414H719.735V47.6ZM754.965 84.98H751.941L756.939 74.816L745.515 53.9H748.791L758.325 71.582H758.535L767.103 53.9H770.211L754.965 84.98ZM776.306 84.98H773.366V53.9H776.306V57.47H776.516C776.516 57.47 779.918 53.48 786.176 53.48C793.904 53.48 798.986 58.562 798.986 65.45C798.986 72.338 793.904 77.42 786.176 77.42C779.918 77.42 776.516 73.43 776.516 73.43H776.306V84.98ZM785.63 74.816C792.14 74.816 796.046 70.91 796.046 65.45C796.046 59.99 792.14 56.084 785.63 56.084C779.414 56.084 776.306 60.788 776.306 60.788V70.112C776.306 70.112 779.414 74.816 785.63 74.816Z" fill="white"/>
<path d="M751 98H733.021C730.766 98 728.604 98.8955 727.01 100.49V100.49C723.691 103.809 718.309 103.809 714.99 100.49V100.49C713.396 98.8955 711.234 98 708.979 98H690" stroke="#F76B4D"/>
</svg>
