<svg width="385" height="347" viewBox="0 0 385 347" fill="none" xmlns="http://www.w3.org/2000/svg">
<path opacity="0.5" d="M129.021 342.947H129.274L129.424 342.742L363.73 22.2924L364.311 21.4973H363.326H325.09H324.837L324.687 21.7018L89.9368 342.151L89.3541 342.947H90.3402H129.021ZM316.865 346.5C337.345 346.5 354.272 338.557 366.071 324.503C377.862 310.457 384.5 290.347 384.5 266.054C384.5 241.871 377.862 221.817 366.071 207.799C354.272 193.773 337.345 185.83 316.865 185.83C296.385 185.83 279.403 193.773 267.549 207.798C255.702 221.816 249.008 241.87 249.008 266.054C249.008 290.348 255.701 310.458 267.549 324.504C279.403 338.557 296.385 346.5 316.865 346.5ZM347.932 266.054C347.932 282.325 344.939 295.439 339.555 304.466C334.183 313.474 326.442 318.407 316.865 318.407C307.29 318.407 299.492 313.42 294.063 304.382C288.624 295.326 285.576 282.212 285.576 266.054C285.576 250.008 288.624 237.006 294.062 228.034C299.489 219.08 307.287 214.145 316.865 214.145C326.673 214.145 334.411 218.921 339.722 227.782C345.048 236.668 347.932 249.668 347.932 266.054ZM138.357 178.17C158.837 178.17 175.764 170.227 187.563 156.173C199.355 142.127 205.992 122.017 205.992 97.7238C205.992 73.541 199.354 53.4868 187.563 39.4689C175.764 25.4427 158.837 17.5 138.357 17.5C117.877 17.5 100.896 25.4424 89.0413 39.468C77.1939 53.4856 70.5 73.54 70.5 97.7238C70.5 122.018 77.1937 142.128 89.041 156.173C100.895 170.227 117.877 178.17 138.357 178.17ZM169.424 97.7238C169.424 113.995 166.431 127.108 161.047 136.136C155.675 145.144 147.934 150.077 138.357 150.077C128.782 150.077 120.984 145.089 115.555 136.051C110.116 126.995 107.068 113.882 107.068 97.7238C107.068 81.6771 110.116 68.6753 115.554 59.7033C120.982 50.7495 128.779 45.8148 138.357 45.8148C148.165 45.8148 155.903 50.5904 161.214 59.4514C166.541 68.3373 169.424 81.3376 169.424 97.7238Z" stroke="#17171D"/>
<line y1="0.5" x2="100" y2="0.5" stroke="#F76B4D"/>
<path d="M342.5 29L357 43.5M357 43.5L342.5 58M357 43.5H336.521C334.266 43.5 332.104 42.6045 330.51 41.0104V41.0104C327.191 37.691 321.809 37.691 318.49 41.0104V41.0104C316.896 42.6045 314.734 43.5 312.479 43.5H296" stroke="#F76B4D"/>
</svg>
