<svg width="189" height="37" viewBox="0 0 189 37" fill="none" xmlns="http://www.w3.org/2000/svg">
<g clip-path="url(#clip0_6_253)">
<path d="M99.1337 18.7626C101.249 20.1233 101.969 23.8975 101.969 26.2024V34.483L101.092 34.6926C100.211 34.8829 99.311 34.9676 98.4105 34.945C88.7181 34.945 83.2953 25.2507 83.2953 16.445C83.2953 10.376 85.875 2.98656 91.4568 0C82.7883 1.31025 77.3705 8.80568 77.3705 18.394C77.3705 29.0325 83.8719 37 94.1384 37C98.9871 37 103.786 35.1116 106.52 31.0244C106.95 30.4108 107.33 29.7623 107.656 29.0855C107.758 28.1943 107.656 27.1466 107.656 26.2024C107.656 24.2636 108.016 20.8049 109.306 19.2321C106.304 19.1867 101.351 19.0756 99.1337 18.7626Z" fill="white"/>
<path d="M107.285 8.43699V0.944092C106.615 1.2857 105.876 1.46459 105.126 1.46668C104.023 1.45015 102.929 1.27419 101.875 0.944092C104.291 2.82994 106.097 5.65998 107.285 8.43699Z" fill="white"/>
<path d="M114.612 31.6531C114.147 33.5414 113.272 35.3743 111.776 36.6315H117.398C115.954 35.3743 115.067 33.5414 114.612 31.6531Z" fill="white"/>
<path d="M150.004 2.62051C150.185 1.71062 150.555 0.85016 151.088 0.0959473H143.866L143.398 1.46679V29.7141C143.398 32.0216 143.15 34.7456 141.746 36.6314H151.085C150.564 35.8938 150.195 35.0564 150.002 34.17C149.627 32.7151 149.436 31.2179 149.432 29.7141V7.06879C149.437 5.56744 149.629 4.07275 150.004 2.62051Z" fill="white"/>
<path d="M114.251 0.105957L130.244 36.6313L133.236 28.0907L120.907 0.105957H114.251Z" fill="white"/>
<path d="M157.316 36.6313H162.038C160.897 35.47 160.472 33.7836 160.472 32.178C159.654 33.7281 158.64 35.4296 157.316 36.6313Z" fill="white"/>
<path d="M189 36.6314C187.347 34.9551 186.316 32.9632 185.439 30.8249L173.263 0.156494L169.807 8.90916L175.997 23.9505C177.081 26.6215 178.98 30.3427 178.98 33.2257C178.98 34.43 178.671 35.6897 177.846 36.6314H189Z" fill="white"/>
<path d="M2.83814 31.6531C2.3734 33.5414 1.49114 35.3743 0 36.6315H5.6241C4.17769 35.3743 3.3004 33.5414 2.83814 31.6531Z" fill="white"/>
<path d="M2.47528 0.105957L18.4703 36.6313L21.4625 28.0907L9.13075 0.105957H2.47528Z" fill="white"/>
<path d="M38.228 2.62051C38.4104 1.71094 38.7796 0.85069 39.3115 0.0959473H32.0894L31.6247 1.45669V29.7141C31.6247 32.0216 31.3762 34.7456 29.9745 36.6314H39.3115C38.7912 35.8932 38.4227 35.0561 38.228 34.17C37.854 32.7151 37.6636 31.2178 37.6613 29.7141V7.06879C37.6641 5.56764 37.8545 4.07293 38.228 2.62051Z" fill="white"/>
<path d="M45.3134 36.6313H50.0353C48.8946 35.47 48.4671 33.7836 48.4671 32.178C47.6445 33.7281 46.628 35.4296 45.3134 36.6313Z" fill="white"/>
<path d="M61.2537 0.156494L57.7968 8.90916L63.9875 23.9505C65.0711 26.6215 66.9698 30.3427 66.9698 33.2257C66.9698 34.43 66.6591 35.6897 65.834 36.6314H76.9778C75.3276 34.9551 74.2963 32.9632 73.419 30.8249L61.2537 0.156494Z" fill="white"/>
</g>
<defs>
<clipPath id="clip0_6_253">
<rect width="189" height="37" fill="white"/>
</clipPath>
</defs>
</svg>
