<svg width="1440" height="156" viewBox="0 0 1440 156" fill="none" xmlns="http://www.w3.org/2000/svg">
<path d="M1441 0H0L205.728 6.51442e-05C347.4 6.51442e-05 485.903 41.9333 603.781 120.515C674.158 167.431 765.842 167.431 836.219 120.515C954.097 41.9333 1092.6 6.51442e-05 1234.27 6.51442e-05L1441 0Z" fill="#121214"/>
<g clip-path="url(#clip0_2027_397)">
<path d="M709.389 83.1579C708.858 83.4346 708.207 83.7559 707.907 84.2189C707.335 85.1099 707.814 86.2438 708.322 86.966C708.785 87.5176 709.294 88.0296 709.843 88.4969C710.1 88.7399 710.553 89.0368 710.931 89.4418C711.309 89.8468 711.529 89.917 712.043 90.7378C712.534 91.518 713.505 93.8183 713.911 94.7241L714.923 96.9839C715.034 97.2337 715.137 97.4632 715.228 97.6684C715.32 97.8735 715.393 98.0355 715.458 98.1786C716.175 96.178 716.588 95.0292 717.304 93.03C717.43 92.6803 717.858 91.4802 717.984 91.132L718.664 89.2272L719.443 87.0511C719.579 86.6785 719.715 86.3046 719.851 85.9306C719.37 84.8628 719.413 84.8939 718.763 83.4603C718.052 81.8835 716.786 79.1405 715.95 77.2883C714.373 73.7879 712.494 69.6193 710.878 66.0352C710.09 64.2803 709.33 62.597 708.625 61.0405C707.921 59.484 708.049 59.6973 707.494 58.4675C707.041 57.4631 706.935 57.2796 706.616 56.5708C706.245 55.746 704.922 52.8221 704.779 52.5075C704.584 52.0746 704.389 51.6413 704.193 51.2075L703.58 49.836L701.975 46.2735C701.904 46.1156 701.839 45.959 701.761 45.801H692L694.078 50.4381L695.846 54.3718C695.914 54.5243 695.982 54.6769 696.052 54.8308C696.787 56.4709 697.363 58.2637 698.322 59.8903C699.348 61.6345 700.161 62.1852 701.041 62.8602C702.128 63.6877 702.672 64.3586 703.39 65.9111C703.917 67.0477 704.136 67.9657 703.719 69.8664C703.368 71.4607 702.495 73.1751 704.316 77.6704C705.338 80.2015 707.171 79.8303 708.476 80.0557C710.734 80.4458 710.595 82.5302 709.389 83.1579Z" fill="white"/>
<path d="M719.639 21C695.922 21 675.914 37.0481 670.034 58.7807C669.909 59.4165 670.121 59.7378 670.798 59.8283C671.52 59.9241 671.82 59.5583 672.008 59.0858C677.731 38.2995 696.918 22.9763 719.639 22.9763C744.629 22.9763 765.341 41.5069 768.573 65.4575C768.886 67.624 769.032 69.8109 769.011 71.9993C768.897 77.9958 768.457 82.3601 761.426 80.7942C756.208 79.6319 749.507 76.8443 746.379 75.1555C741.912 72.7418 742.405 64.9378 742.405 64.9378V55.7758C742.405 54.4258 742.556 51.7853 743.238 49.3757C743.508 48.0737 744.051 46.8426 744.83 45.7619H734.215L733.536 47.7193V88.2998C733.536 91.6126 733.156 95.5274 731.109 98.2367H744.83C744.065 97.1757 743.524 95.9722 743.238 94.6985C742.559 92.2889 742.405 89.6538 742.405 88.2998V87.448C742.405 87.448 741.959 78.3845 749.939 79.3254C754.812 79.8992 761.157 82.4114 763.328 86.3924C764.856 89.1921 764.386 91.9204 763.127 95.1872C761.933 98.2826 759.67 100.845 757.553 103.372C748.483 114.152 734.849 121.03 719.639 121.03C698.604 121.03 680.604 107.893 673.505 89.4554C673.233 88.2404 671.23 88.2404 671.539 89.8793C678.849 109.208 697.65 123 719.639 123C747.96 123 771 100.121 771 71.9993C771 43.8774 747.96 21 719.639 21Z" fill="white"/>
<path d="M687.882 98.199H696.13C694.01 96.3955 692.731 93.7658 692.043 91.0605C691.362 93.7618 690.076 96.3955 687.882 98.199Z" fill="white"/>
</g>
<defs>
<clipPath id="clip0_2027_397">
<rect width="101" height="102" fill="white" transform="translate(670 21)"/>
</clipPath>
</defs>
</svg>
