<svg width="818" height="157" viewBox="0 0 818 157" fill="none" xmlns="http://www.w3.org/2000/svg">
<g clip-path="url(#clip0_1_3105)">
<path d="M429.055 79.6141C438.209 85.388 441.328 101.403 441.328 111.183V146.32L437.531 147.209C433.718 148.016 429.822 148.376 425.925 148.28C383.976 148.28 360.506 107.145 360.506 69.7802C360.506 44.0277 371.671 12.6727 395.829 0C358.311 5.5597 334.863 37.3646 334.863 78.0501C334.863 123.192 363.001 157 407.435 157C428.42 157 449.191 148.987 461.023 131.644C462.885 129.04 464.529 126.289 465.938 123.417C466.379 119.635 465.938 115.19 465.938 111.183C465.938 102.956 467.498 88.2804 473.08 81.6066C460.087 81.4138 438.65 80.9424 429.055 79.6141Z" fill="white"/>
<path d="M464.335 35.8007V4.00647C461.434 5.456 458.234 6.21506 454.988 6.22392C450.217 6.15382 445.479 5.40717 440.919 4.00647C451.374 12.0086 459.194 24.0171 464.335 35.8007Z" fill="white"/>
<path d="M496.045 134.311C494.033 142.324 490.247 150.101 483.772 155.436H508.103C501.853 150.101 498.013 142.324 496.045 134.311Z" fill="white"/>
<path d="M649.224 11.1194C650.009 7.25855 651.608 3.60741 653.914 0.407104H622.656L620.634 6.2239V126.084C620.634 135.875 619.558 147.434 613.481 155.436H653.903C651.647 152.306 650.052 148.753 649.213 144.992C647.592 138.818 646.765 132.465 646.75 126.084V29.9946C646.77 23.624 647.601 17.2817 649.224 11.1194Z" fill="white"/>
<path d="M494.485 0.449951L563.701 155.436L576.652 119.196L523.29 0.449951H494.485Z" fill="white"/>
<path d="M680.869 155.436H701.306C696.369 150.508 694.529 143.352 694.529 136.539C690.991 143.117 686.602 150.337 680.869 155.436Z" fill="white"/>
<path d="M818 155.436C810.847 148.323 806.383 139.871 802.586 130.798L749.892 0.664185L734.93 37.8039L761.723 101.628C766.413 112.962 774.631 128.752 774.631 140.985C774.631 146.095 773.297 151.44 769.726 155.436H818Z" fill="white"/>
<path d="M12.2836 134.311C10.2722 142.324 6.45373 150.101 0 155.436H24.3413C18.0812 150.101 14.2843 142.324 12.2836 134.311Z" fill="white"/>
<path d="M10.7133 0.449951L79.9403 155.436L92.8908 119.196L39.5184 0.449951H10.7133Z" fill="white"/>
<path d="M165.452 11.1194C166.242 7.25992 167.84 3.60966 170.142 0.407104H138.884L136.873 6.18105V126.084C136.873 135.875 135.797 147.434 129.731 155.436H170.142C167.89 152.304 166.295 148.751 165.452 144.992C163.834 138.818 163.01 132.465 163 126.084V29.9946C163.012 23.6248 163.836 17.2824 165.452 11.1194Z" fill="white"/>
<path d="M196.118 155.436H216.555C211.618 150.508 209.768 143.352 209.768 136.539C206.208 143.117 201.808 150.337 196.118 155.436Z" fill="white"/>
<path d="M265.109 0.664185L250.147 37.8039L276.94 101.628C281.63 112.962 289.848 128.752 289.848 140.985C289.848 146.095 288.503 151.44 284.932 155.436H333.163C326.021 148.323 321.557 139.871 317.76 130.798L265.109 0.664185Z" fill="white"/>
</g>
<defs>
<clipPath id="clip0_1_3105">
<rect width="818" height="157" fill="white"/>
</clipPath>
</defs>
</svg>
