<svg width="29" height="29" viewBox="0 0 29 29" fill="none" xmlns="http://www.w3.org/2000/svg">
<path d="M3.625 10.5245C3.625 8.74339 3.625 7.85405 4.09987 7.33447C4.26794 7.14963 4.4724 7.00153 4.70042 6.89947C5.34325 6.6143 6.18788 6.89584 7.87713 7.45893C9.16642 7.88909 9.81046 8.10418 10.463 8.08122C10.7023 8.07335 10.9403 8.04178 11.1735 7.98697C11.8078 7.83593 12.3733 7.45893 13.5043 6.70614L15.1742 5.59205C16.6243 4.62539 17.348 4.14205 18.1794 4.03209C19.0107 3.91972 19.8372 4.19522 21.489 4.74622L22.8967 5.21505C24.093 5.6138 24.6911 5.81318 25.033 6.28805C25.375 6.76293 25.375 7.39368 25.375 8.65397V18.4765C25.375 20.2564 25.375 21.1469 24.9001 21.6665C24.7318 21.8505 24.5274 21.9977 24.2996 22.0991C23.6568 22.3855 22.8121 22.1039 21.1229 21.5408C19.8336 21.1107 19.1895 20.8956 18.537 20.9186C18.2977 20.9264 18.0597 20.958 17.8265 21.0128C17.1922 21.1638 16.6267 21.5408 15.4957 22.2936L13.8258 23.4077C12.3758 24.3744 11.652 24.8577 10.8206 24.9677C9.98929 25.0801 9.16279 24.8046 7.511 24.2536L6.10329 23.7847C4.90704 23.386 4.30892 23.1866 3.96696 22.7117C3.625 22.2368 3.625 21.6049 3.625 20.3458V10.5245Z" stroke="#F76B4D" stroke-width="1.5"/>
<path opacity="0.5" d="M10.875 8.02213V24.7708M18.125 3.625V20.5417" stroke="#F76B4D" stroke-width="1.5"/>
</svg>
