<svg width="31" height="31" viewBox="0 0 31 31" fill="none" xmlns="http://www.w3.org/2000/svg">
<path d="M20.7957 17.2554L21.3847 16.6703C22.1985 15.8617 23.4656 15.695 24.5067 16.2608L26.9738 17.6028C28.5586 18.4644 28.9087 20.5763 27.67 21.8072L25.8358 23.631C25.3682 24.096 24.7896 24.4345 24.1231 24.4965M5.17044 7.42063C5.12523 6.6198 5.49981 5.89905 6.0604 5.34105L8.08831 3.32605C9.21723 2.2023 11.1211 2.37667 12.1067 3.69288L13.7355 5.86805C14.5324 6.93238 14.4459 8.38938 13.5327 9.29613L13.1633 9.66555" stroke="white" stroke-width="1.5"/>
<path opacity="0.5" d="M24.123 24.4964C22.0176 24.6928 16.8716 24.4758 11.3872 19.0223C6.21408 13.8789 5.28666 9.47046 5.17041 7.42188" stroke="white" stroke-width="1.5"/>
<path opacity="0.5" d="M20.7958 17.2554C20.7958 17.2554 19.3982 18.6453 15.5813 14.8503C11.7645 11.0554 13.1633 9.66431 13.1633 9.66431" stroke="white" stroke-width="1.5" stroke-linecap="round"/>
</svg>
