<svg width="26" height="25" viewBox="0 0 26 25" fill="none" xmlns="http://www.w3.org/2000/svg">
<path d="M16.7959 16.2554L17.3849 15.6703C18.1986 14.8617 19.4657 14.695 20.5068 15.2608L22.9739 16.6028C24.5588 17.4644 24.9088 19.5763 23.6701 20.8072L21.8359 22.631C21.3684 23.096 20.7897 23.4345 20.1232 23.4965M1.17056 6.42063C1.12535 5.6198 1.49993 4.89905 2.06052 4.34105L4.08843 2.32605C5.21735 1.2023 7.12127 1.37667 8.10681 2.69288L9.7356 4.86805C10.5326 5.93238 10.446 7.38938 9.53281 8.29613L9.16339 8.66555" stroke="#F76B4D" stroke-width="1.5"/>
<path opacity="0.5" d="M20.1232 23.4964C18.0177 23.6928 12.8717 23.4758 7.38732 18.0223C2.2142 12.8789 1.28678 8.47046 1.17053 6.42188" stroke="#F76B4D" stroke-width="1.5"/>
<path opacity="0.5" d="M16.7958 16.2554C16.7958 16.2554 15.3982 17.6453 11.5813 13.8503C7.76447 10.0554 9.16334 8.66431 9.16334 8.66431" stroke="#F76B4D" stroke-width="1.5" stroke-linecap="round"/>
</svg>
